<svg width="14" height="14" viewBox="0 0 14 14" fill="none" xmlns="http://www.w3.org/2000/svg">
<path fill-rule="evenodd" clip-rule="evenodd" d="M8.75 7.00001H7.58333V5.83334C7.58333 5.51076 7.322 5.25001 7 5.25001C6.678 5.25001 6.41667 5.51076 6.41667 5.83334V7.58334C6.41667 7.90593 6.678 8.16668 7 8.16668H8.75C9.072 8.16668 9.33333 7.90593 9.33333 7.58334C9.33333 7.26076 9.072 7.00001 8.75 7.00001ZM7 11.5208C4.82883 11.5208 3.0625 9.75451 3.0625 7.58334C3.0625 5.41218 4.82883 3.64584 7 3.64584C9.17117 3.64584 10.9375 5.41218 10.9375 7.58334C10.9375 9.75451 9.17117 11.5208 7 11.5208ZM7.57633 2.36718C7.5775 2.35493 7.58333 2.34559 7.58333 2.33334V1.75001H8.16667C8.48867 1.75001 8.75 1.48926 8.75 1.16668C8.75 0.844094 8.48867 0.583344 8.16667 0.583344H5.83333C5.51133 0.583344 5.25 0.844094 5.25 1.16668C5.25 1.48926 5.51133 1.75001 5.83333 1.75001H6.41667V2.33334C6.41667 2.34559 6.4225 2.35493 6.42367 2.36718C3.79925 2.65534 1.75 4.88368 1.75 7.58334C1.75 10.4784 4.1055 12.8333 7 12.8333C9.8945 12.8333 12.25 10.4784 12.25 7.58334C12.25 4.88368 10.2007 2.65534 7.57633 2.36718Z" fill="#373737"/>
<mask id="mask0_2_6839" style="mask-type:luminance" maskUnits="userSpaceOnUse" x="1" y="0" width="12" height="13">
<path fill-rule="evenodd" clip-rule="evenodd" d="M8.75 7.00001H7.58333V5.83334C7.58333 5.51076 7.322 5.25001 7 5.25001C6.678 5.25001 6.41667 5.51076 6.41667 5.83334V7.58334C6.41667 7.90593 6.678 8.16668 7 8.16668H8.75C9.072 8.16668 9.33333 7.90593 9.33333 7.58334C9.33333 7.26076 9.072 7.00001 8.75 7.00001ZM7 11.5208C4.82883 11.5208 3.0625 9.75451 3.0625 7.58334C3.0625 5.41218 4.82883 3.64584 7 3.64584C9.17117 3.64584 10.9375 5.41218 10.9375 7.58334C10.9375 9.75451 9.17117 11.5208 7 11.5208ZM7.57633 2.36718C7.5775 2.35493 7.58333 2.34559 7.58333 2.33334V1.75001H8.16667C8.48867 1.75001 8.75 1.48926 8.75 1.16668C8.75 0.844094 8.48867 0.583344 8.16667 0.583344H5.83333C5.51133 0.583344 5.25 0.844094 5.25 1.16668C5.25 1.48926 5.51133 1.75001 5.83333 1.75001H6.41667V2.33334C6.41667 2.34559 6.4225 2.35493 6.42367 2.36718C3.79925 2.65534 1.75 4.88368 1.75 7.58334C1.75 10.4784 4.1055 12.8333 7 12.8333C9.8945 12.8333 12.25 10.4784 12.25 7.58334C12.25 4.88368 10.2007 2.65534 7.57633 2.36718Z" fill="white"/>
</mask>
<g mask="url(#mask0_2_6839)">
<rect width="14" height="14" fill="#373737"/>
</g>
</svg>
